<svg width="48" height="49" viewBox="0 0 48 49" fill="none" xmlns="http://www.w3.org/2000/svg">
<path id="plant" d="M47.9266 3.2958C47.893 2.59204 47.6524 1.928 47.2504 1.42949C46.8483 0.930987 46.3128 0.632644 45.7452 0.590988C35.4324 -0.162615 27.1249 3.7998 23.517 11.1846C21.1672 15.9847 21.0859 21.7855 23.2344 27.3367C22.3155 28.7893 21.5818 30.4082 21.0588 32.1367L19.1813 29.8087C20.573 25.7839 20.4259 21.6223 18.7167 18.1231C16.0108 12.5862 9.84789 9.61983 2.23331 10.167C1.66574 10.2087 1.13019 10.507 0.728155 11.0055C0.326115 11.504 0.0855045 12.1681 0.0519098 12.8718C-0.389403 22.3135 2.00298 29.9551 6.47224 33.3103C7.98802 34.4559 9.72963 35.0597 11.5048 35.0551C13.0182 35.0398 14.5132 34.6421 15.8985 33.8863L20.1278 39.14V45.62C20.1278 46.3838 20.3725 47.1164 20.8081 47.6565C21.2437 48.1966 21.8345 48.5 22.4505 48.5C23.0665 48.5 23.6573 48.1966 24.0929 47.6565C24.5285 47.1164 24.7732 46.3838 24.7732 45.62V38.5424C24.7684 35.9679 25.4104 33.4556 26.61 31.3543C28.552 32.4995 30.6711 33.1087 32.8213 33.1399C35.1354 33.1467 37.4061 32.361 39.383 30.8695C45.3387 26.3839 48.5344 16.0807 47.9266 3.2958ZM8.87817 28.3831C6.32513 26.4631 4.7786 21.7927 4.65279 15.8719C9.42787 16.0279 13.1965 17.9479 14.743 21.1111C15.3478 22.3309 15.5959 23.7714 15.4456 25.1911L13.2526 22.4623C12.8162 21.9212 12.2244 21.6173 11.6073 21.6173C10.9903 21.6173 10.3984 21.9212 9.96209 22.4623C9.52575 23.0033 9.28061 23.7371 9.28061 24.5023C9.28061 25.2674 9.52575 26.0013 9.96209 26.5423L12.157 29.2639C11.0152 29.4387 9.85929 29.1282 8.87817 28.3831ZM36.977 25.9399C34.9137 27.4879 32.5252 27.7807 30.0457 26.8423L37.2557 17.9047C37.6921 17.3636 37.9372 16.6298 37.9372 15.8647C37.9372 15.0995 37.6921 14.3657 37.2557 13.8246C36.8194 13.2836 36.2276 12.9796 35.6105 12.9796C34.9934 12.9796 34.4016 13.2836 33.9653 13.8246L26.7552 22.7623C26.0061 19.6999 26.2423 16.7263 27.483 14.1798C29.9547 9.11823 35.806 6.24301 43.3548 6.25981C43.3819 15.6199 41.0592 22.8631 36.977 25.9399Z" fill="#005129"/>
</svg>
